<?xml version="1.0"?><svg width="1000" height="1000" xmlns="http://www.w3.org/2000/svg">
 <title>Large_Man_woman_bathroom_sign</title>
 <g>
  <title>Layer 1</title>
  <path id="svg_3" fill="#FFFFFF" d="m135.147751,27.509501c-53.258301,0 -96.551342,43.474089 -96.551342,96.669462l0,740.098747c0,53.006348 43.293041,96.244324 96.551342,96.244324l740.043594,0c53.195313,0 96.425476,-43.22998 96.425476,-96.244324l0,-740.090881c0,-53.195358 -43.230164,-96.669468 -96.425476,-96.669468l-740.043594,0l0,-0.007851l0,-0.00001z"/>
  <path id="svg_5" fill="#ff007f" d="m298.692993,288.64801c36.901001,0 63.341003,30.375977 68.875,46.921997l45.197998,148.755005c9.036011,31.856018 -31.612,45.13501 -41.324982,14.018982l-40.649017,-136.459991l-23.432983,0l68.134979,242.53598l-65.001984,0l0,189.285034c0,32.289001 -48.52002,32.099976 -48.52002,0l0,-190.450012l-24.66098,0l0,190.088013c0,32.651001 -48.764008,32.651001 -48.764008,0l0,-188.915039l-65.119995,0l67.457993,-242.53598l-22.386002,0l-40.774994,136.829987c-9.595001,29.762024 -50.613197,17.710999 -41.261902,-14.388977l45.197906,-148.755005c4.856995,-16.90799 26.259003,-46.921997 63.341995,-46.921997l103.690994,0l0,-0.007996z"/>
  <path id="svg_6" fill="#ff007f" d="m246.621857,279.517975c29.085022,0 52.699402,-23.61438 52.699402,-52.644318c0,-29.211014 -23.61438,-52.825424 -52.699402,-52.825424c-29.148056,0 -52.699493,23.61441 -52.699493,52.825424c-0.007858,29.029938 23.551437,52.644318 52.699493,52.644318z"/>
  <path id="svg_7" fill="#007fff" d="m763.692078,271.589172c29.210938,0 52.825317,-23.488464 52.825317,-52.699463c0,-29.029953 -23.61438,-52.644348 -52.825317,-52.644348c-29.030029,0 -52.644348,23.614395 -52.644348,52.644348c0.007874,29.210999 23.622253,52.699463 52.644348,52.699463z"/>
  <path id="svg_8" fill="#007fff" d="m692.423828,778.746277c0,16.356934 13.035156,29.580933 29.392029,29.580933c16.294006,0 29.580933,-13.223999 29.580933,-29.580933l0,-247.888123l24.77948,0l0,247.888123c0,16.356934 13.286987,29.580933 29.580994,29.580933c16.356812,0 29.454956,-13.223999 29.454956,-29.580933l0.18103,-427.396881l24.598389,0l0,157.555267c0,31.729858 41.262207,31.729858 41.262207,0l0,-160.995087c0,-34.988647 -27.243225,-69.182312 -68.198425,-69.182312l-139.718506,-0.18103c-37.452454,0 -67.458435,30.501953 -67.458435,68.387268l0,161.978973c0,31.359924 41.506226,31.359924 41.506226,0l0,-157.56308l25.031311,0l0,427.396881l0.007813,0z"/>
 </g>
</svg>